<?xml version="1.0"?><svg width="12.5915" height="12.5915" xmlns="http://www.w3.org/2000/svg">
 <title>purple_info</title>
 <defs>.fil0 {fill:#EF7900}</defs>
 <g>
  <title>Layer 1</title>
  <g transform="matrix(0.443852,0.000000,0.000000,0.443852,3.501380,3.501380)" id="Layer_x0020_1">
   <path fill="#3f007f" id="path10" d="m6.29577,0c3.47651,0 6.29577,2.81926 6.29577,6.29577c0,3.47651 -2.819261,6.29577 -6.29577,6.29577c-3.47651,0 -6.29577,-2.819261 -6.29577,-6.29577c0,-3.47651 2.81926,-6.29577 6.29577,-6.29577zm0.94617,4.51008l0,5.596961l0.74624,0l0,0.666289l-0.13323,0l-3.2516,0l0,-0.666289l0.74628,0l0,-4.93067l-0.74628,0l0,-0.66629l0.13328,0l2.50531,0l0,0zm-1.94563,-1.75903c0,-0.23988 0.08665,-0.45532 0.25988,-0.64633c0.17323,-0.19102 0.39757,-0.28651 0.67296,-0.28651l0.13327,0c0.23097,0 0.44419,0.08441 0.63963,0.25321c0.19547,0.16878 0.29317,0.39533 0.29317,0.67963c0,0.23985 -0.08437,0.45528 -0.25318,0.6463c-0.16881,0.19101 -0.39532,0.28651 -0.67962,0.28651l-0.13327,0c-0.23098,0 -0.4442,-0.08441 -0.63964,-0.25318c-0.19547,-0.16881 -0.2932,-0.39537 -0.2932,-0.67963l0,0z" class="fil0"/>
  </g>
 </g>
</svg>